<?xml version="1.0" encoding="UTF-8" standalone="no"?>
<!DOCTYPE svg PUBLIC "-//W3C//DTD SVG 1.1//EN"
 "http://www.w3.org/Graphics/SVG/1.1/DTD/svg11.dtd">
<!-- Generated by graphviz version 2.28.0 (20120217.0315)
 -->
<!-- Title: G Pages: 1 -->
<svg width="333pt" height="220pt"
 viewBox="0.00 0.00 333.00 220.00" xmlns="http://www.w3.org/2000/svg" xmlns:xlink="http://www.w3.org/1999/xlink">
<g id="graph1" class="graph" transform="scale(1 1) rotate(0) translate(4 216)">
<title>G</title>
<polygon fill="white" stroke="white" points="-4,5 -4,-216 330,-216 330,5 -4,5"/>
<g id="graph2" class="cluster"><title>cluster_default</title>
<polyline fill="none" stroke="none" points="20,-44 305,-44 "/>
<path fill="none" stroke="none" d="M305,-44C311,-44 317,-50 317,-56"/>
<polyline fill="none" stroke="none" points="317,-56 317,-192 "/>
<path fill="none" stroke="none" d="M317,-192C317,-198 311,-204 305,-204"/>
<polyline fill="none" stroke="none" points="305,-204 20,-204 "/>
<path fill="none" stroke="none" d="M20,-204C14,-204 8,-198 8,-192"/>
<polyline fill="none" stroke="none" points="8,-192 8,-56 "/>
<path fill="none" stroke="none" d="M8,-56C8,-50 14,-44 20,-44"/>
</g>
<!-- \\jsonSqlBase -->
<g id="node2" class="node"><title>\\jsonSqlBase</title>
<a xlink:href="json_sql.html" xlink:title="«abstract»&lt;br/&gt;jsonSqlBase" target="_parent">
<polygon fill="none" stroke="black" points="108,-142 16,-142 16,-106 108,-106 108,-142"/>
<text text-anchor="start" x="28" y="-127.7" font-family="Courier,monospace" font-size="11.00">«abstract»</text>
<text text-anchor="start" x="24.5" y="-116.7" font-family="Courier,monospace" font-size="11.00">jsonSqlBase</text>
</a>
</g>
<!-- \\jsonSqlInstaller -->
<g id="node3" class="node"><title>\\jsonSqlInstaller</title>
<a xlink:href="json_sql_installer.html" xlink:title="jsonSqlInstaller" target="_parent">
<polygon fill="none" stroke="black" points="308.5,-196 183.5,-196 183.5,-160 308.5,-160 308.5,-196"/>
<text text-anchor="middle" x="246" y="-175.2" font-family="Courier,monospace" font-size="11.00">jsonSqlInstaller</text>
</a>
</g>
<!-- \\jsonSqlMysql -->
<g id="node4" class="node"><title>\\jsonSqlMysql</title>
<a xlink:href="json_sql_mysql.html" xlink:title="jsonSqlMysql" target="_parent">
<polygon fill="none" stroke="black" points="295,-142 197,-142 197,-106 295,-106 295,-142"/>
<text text-anchor="middle" x="246" y="-121.2" font-family="Courier,monospace" font-size="11.00">jsonSqlMysql</text>
</a>
</g>
<!-- \\jsonSqlMysql&#45;&gt;\\jsonSqlBase -->
<g id="edge3" class="edge"><title>\\jsonSqlMysql&#45;&gt;\\jsonSqlBase</title>
<path fill="none" stroke="black" d="M196.705,-124C172.548,-124 143.198,-124 118.157,-124"/>
<polygon fill="none" stroke="black" points="118.077,-120.5 108.077,-124 118.077,-127.5 118.077,-120.5"/>
</g>
<!-- \\sqlException -->
<g id="node5" class="node"><title>\\sqlException</title>
<a xlink:href="sqlException.html" xlink:title="sqlException" target="_parent">
<polygon fill="none" stroke="black" points="295,-88 197,-88 197,-52 295,-52 295,-88"/>
<text text-anchor="middle" x="246" y="-67.2" font-family="Courier,monospace" font-size="11.00">sqlException</text>
</a>
</g>
<!-- \\Exception -->
<g id="node8" class="node"><title>\\Exception</title>
<ellipse fill="none" stroke="black" cx="62" cy="-18" rx="48.9926" ry="18"/>
<text text-anchor="middle" x="62" y="-14.3" font-family="Times,serif" font-size="14.00" fill="gray">\Exception</text>
</g>
<!-- \\sqlException&#45;&gt;\\Exception -->
<g id="edge5" class="edge"><title>\\sqlException&#45;&gt;\\Exception</title>
<path fill="none" stroke="black" d="M196.705,-56.2015C170.185,-48.6244 137.407,-39.2593 110.943,-31.6981"/>
<polygon fill="none" stroke="black" points="111.713,-28.2779 101.136,-28.896 109.79,-35.0086 111.713,-28.2779"/>
</g>
</g>
</svg>
