<?xml version="1.0" encoding="UTF-8" standalone="no"?>
<!DOCTYPE svg PUBLIC "-//W3C//DTD SVG 1.1//EN"
 "http://www.w3.org/Graphics/SVG/1.1/DTD/svg11.dtd">
<!-- Generated by graphviz version 2.28.0 (20120217.0315)
 -->
<!-- Title: G Pages: 1 -->
<svg width="305pt" height="166pt"
 viewBox="0.00 0.00 305.00 166.00" xmlns="http://www.w3.org/2000/svg" xmlns:xlink="http://www.w3.org/1999/xlink">
<g id="graph1" class="graph" transform="scale(1 1) rotate(0) translate(4 162)">
<title>G</title>
<polygon fill="white" stroke="white" points="-4,5 -4,-162 302,-162 302,5 -4,5"/>
<g id="graph2" class="cluster"><title>cluster_default</title>
<polyline fill="none" stroke="none" points="20,-44 277,-44 "/>
<path fill="none" stroke="none" d="M277,-44C283,-44 289,-50 289,-56"/>
<polyline fill="none" stroke="none" points="289,-56 289,-138 "/>
<path fill="none" stroke="none" d="M289,-138C289,-144 283,-150 277,-150"/>
<polyline fill="none" stroke="none" points="277,-150 20,-150 "/>
<path fill="none" stroke="none" d="M20,-150C14,-150 8,-144 8,-138"/>
<polyline fill="none" stroke="none" points="8,-138 8,-56 "/>
<path fill="none" stroke="none" d="M8,-56C8,-50 14,-44 20,-44"/>
</g>
<!-- \\jsonSqlBase -->
<g id="node2" class="node"><title>\\jsonSqlBase</title>
<a xlink:href="json_sql.html" xlink:title="«abstract»&lt;br/&gt;jsonSqlBase" target="_parent">
<polygon fill="none" stroke="black" points="108,-142 16,-142 16,-106 108,-106 108,-142"/>
<text text-anchor="start" x="28" y="-127.7" font-family="Courier,monospace" font-size="11.00">«abstract»</text>
<text text-anchor="start" x="24.5" y="-116.7" font-family="Courier,monospace" font-size="11.00">jsonSqlBase</text>
</a>
</g>
<!-- \\jsonSqlMysql -->
<g id="node3" class="node"><title>\\jsonSqlMysql</title>
<a xlink:href="json_sql_mysql.html" xlink:title="jsonSqlMysql" target="_parent">
<polygon fill="none" stroke="black" points="281,-142 183,-142 183,-106 281,-106 281,-142"/>
<text text-anchor="middle" x="232" y="-121.2" font-family="Courier,monospace" font-size="11.00">jsonSqlMysql</text>
</a>
</g>
<!-- \\jsonSqlMysql&#45;&gt;\\jsonSqlBase -->
<g id="edge3" class="edge"><title>\\jsonSqlMysql&#45;&gt;\\jsonSqlBase</title>
<path fill="none" stroke="black" d="M182.858,-124C162.693,-124 139.135,-124 118.266,-124"/>
<polygon fill="none" stroke="black" points="118.264,-120.5 108.264,-124 118.264,-127.5 118.264,-120.5"/>
</g>
<!-- \\sqlException -->
<g id="node4" class="node"><title>\\sqlException</title>
<a xlink:href="sqlException.html" xlink:title="sqlException" target="_parent">
<polygon fill="none" stroke="black" points="281,-88 183,-88 183,-52 281,-52 281,-88"/>
<text text-anchor="middle" x="232" y="-67.2" font-family="Courier,monospace" font-size="11.00">sqlException</text>
</a>
</g>
<!-- \\Exception -->
<g id="node7" class="node"><title>\\Exception</title>
<ellipse fill="none" stroke="black" cx="62" cy="-18" rx="48.9926" ry="18"/>
<text text-anchor="middle" x="62" y="-14.3" font-family="Times,serif" font-size="14.00" fill="gray">\Exception</text>
</g>
<!-- \\sqlException&#45;&gt;\\Exception -->
<g id="edge5" class="edge"><title>\\sqlException&#45;&gt;\\Exception</title>
<path fill="none" stroke="black" d="M182.858,-55.0989C159.884,-47.988 132.506,-39.5136 109.719,-32.4605"/>
<polygon fill="none" stroke="black" points="110.521,-29.0451 99.9333,-29.4317 108.451,-35.7321 110.521,-29.0451"/>
</g>
</g>
</svg>
